# xmcd
#
# Track frame offsets:
#	150
#	22041
#	35510
#	50166
#	62955
#	78742
#	94872
#	112881
#	125059
#	140286
#	153359
#	169195
#	188479
#	201067
#	215314
#	234032
#	250138
#	267461
#	278565
#
# Disc length: 3877 seconds
#
# Revision: 0
# Processed by: cddbd v1.5.2PL0 Copyright (c) Steve Scherf et al.
# Submitted via: EZCDAudioConverter 5.4.0.1
#
DISCID=0c0f2313
DTITLE=Chris Isaak - Chris Isaak - Your Favorite LP's
DYEAR=2003
DGENRE=surf rock
TTITLE0=Wicked Game
TTITLE1=San Francisco Days
TTITLE2=Blue Hotel
TTITLE3=Like The Way The Moves
TTITLE4=Heart-Shaped World
TTITLE5=Please
TTITLE6=Blue Spanish Sky
TTITLE7=Forever Blue
TTITLE8=Heart Full Of Soul
TTITLE9=Baby Did A Bad Bad Thing
TTITLE10=Speak Of A Devil
TTITLE11=Lie To Me
TTITLE12=Somebody's Crying
TTITLE13=Lonely With Broken Heart
TTITLE14=Nothing's Changing
TTITLE15=Two Hearts
TTITLE16=Beautiful Homes
TTITLE17=Pretty Girls Don't Cry
TTITLE18=Voodoo
EXTD=
EXTT0=
EXTT1=
EXTT2=
EXTT3=
EXTT4=
EXTT5=
EXTT6=
EXTT7=
EXTT8=
EXTT9=
EXTT10=
EXTT11=
EXTT12=
EXTT13=
EXTT14=
EXTT15=
EXTT16=
EXTT17=
EXTT18=
PLAYORDER=
